<?xml version="1.0" standalone="no"?><!DOCTYPE svg PUBLIC "-//W3C//DTD SVG 1.1//EN" "http://www.w3.org/Graphics/SVG/1.1/DTD/svg11.dtd"><svg t="1659232667061" class="icon" viewBox="0 0 1024 1024" version="1.1" xmlns="http://www.w3.org/2000/svg" p-id="4581" xmlns:xlink="http://www.w3.org/1999/xlink" width="16" height="16"><defs><style type="text/css">@font-face { font-family: feedback-iconfont; src: url("//at.alicdn.com/t/font_1031158_u69w8yhxdu.woff2?t=1630033759944") format("woff2"), url("//at.alicdn.com/t/font_1031158_u69w8yhxdu.woff?t=1630033759944") format("woff"), url("//at.alicdn.com/t/font_1031158_u69w8yhxdu.ttf?t=1630033759944") format("truetype"); }
</style></defs><path d="M419.413333 375.04L341.333333 403.456V554.666667H256V343.466667h0.64l224.768-81.834667c10.410667-3.968 21.76-5.973333 33.365333-5.589333a111.616 111.616 0 0 1 103.552 77.653333c7.936 24.874667 15.189333 41.685333 21.76 50.432A212.992 212.992 0 0 0 810.666667 469.333333v85.333334a298.069333 298.069333 0 0 1-230.485334-108.672l-24.789333 140.672L640 668.586667V981.333333h-85.333333v-255.402666l-87.466667-84.778667-40.405333 183.381333-294.144-51.84 14.848-84.053333 210.090666 37.034667L419.413333 375.04zM576 234.666667a85.333333 85.333333 0 1 1 0-170.666667 85.333333 85.333333 0 0 1 0 170.666667z" p-id="4582" fill="#1296db"></path></svg>